# xmcd
#
# Track frame offsets: 
#        150
#        18547
#        31566
#        49812
#        65347
#        88103
#        106075
#        120860
#        140310
#
# Disc length: 2298 seconds
#
# Revision: 0
# Processed by: cddbd v1.5.2PL0 Copyright (c) Steve Scherf et al.
# Submitted via: ExactAudioCopyFreeDBPlugin 1.0
#
DISCID=6508f809
DTITLE=Stone Mountain Sinners - Tones of Home
DYEAR=2018
DGENRE=Alt. Country
TTITLE0=Roadhouse
TTITLE1=Arms of Love
TTITLE2=Round Here
TTITLE3=Fool Like Me
TTITLE4=Keeping on
TTITLE5=Stronger
TTITLE6=Music City Blues
TTITLE7=All Night Long
TTITLE8=Tones of Home
EXTD=
EXTT0=
EXTT1=
EXTT2=
EXTT3=
EXTT4=
EXTT5=
EXTT6=
EXTT7=
EXTT8=
PLAYORDER=
